<svg width="32" height="32" viewBox="0 0 32 32" fill="none" xmlns="http://www.w3.org/2000/svg">
  <rect width="32" height="32" rx="7" fill="#0F1B3D"/>
  <path
    d="M3 25 C5.5 25, 8 6, 12 6 C16 6, 14.5 19, 16 19 C17.5 19, 16 6, 20 6 C24 6, 26.5 25, 29 25"
    stroke="url(#fav-grad)" stroke-width="3.5" stroke-linecap="round" stroke-linejoin="round" fill="none"/>
  <path
    d="M3 25 C5.5 25, 8 6, 12 6 C16 6, 14.5 19, 16 19 C17.5 19, 16 6, 20 6 C24 6, 26.5 25, 29 25"
    stroke="url(#fav-grad)" stroke-width="3.5" stroke-linecap="round" stroke-linejoin="round" fill="none" opacity="0.4" filter="url(#glow)"/>
  <defs>
    <linearGradient id="fav-grad" x1="3" y1="0" x2="29" y2="0" gradientUnits="userSpaceOnUse">
      <stop offset="0%" stop-color="#8BC34A" />
      <stop offset="40%" stop-color="#3DB8A0" />
      <stop offset="100%" stop-color="#22B8CF" />
    </linearGradient>
    <filter id="glow" x="-50%" y="-50%" width="200%" height="200%">
      <feGaussianBlur stdDeviation="1.5" result="blur"/>
    </filter>
  </defs>
</svg>